<svg xmlns="http://www.w3.org/2000/svg" viewBox="0 0 558.9 82.9" fill="none">
  <!-- Eurostile LT Extended Two | 44px -->
  <g fill="#d0d0d6">
    <path d="M90 0H188V636H190L631 0H701L1142 636H1144V0H1242V724H1089L666 117L243 724H90Z" transform="translate(4.00, 48.34) scale(0.044000, -0.044000)"/>
    <path d="M96 0H811V80H194V333H783V413H194V644H807V724H96Z" transform="translate(64.61, 48.34) scale(0.044000, -0.044000)"/>
    <path d="M383 0H481V644H847V724H17V644H383Z" transform="translate(104.62, 48.34) scale(0.044000, -0.044000)"/>
    <path d="M15 0H126L216 153H796L886 0H997L567 724H445ZM749 233H263L506 644Z" transform="translate(144.64, 48.34) scale(0.044000, -0.044000)"/>
    <path d="M90 0H188V636L851 0H997V724H899V88L236 724H90Z" transform="translate(229.17, 48.34) scale(0.044000, -0.044000)"/>
    <path d="M383 0H481V644H847V724H17V644H383Z" transform="translate(279.00, 48.34) scale(0.044000, -0.044000)"/>
    <path d="M96 0H811V80H194V333H783V413H194V644H807V724H96Z" transform="translate(319.01, 48.34) scale(0.044000, -0.044000)"/>
    <path d="M96 0H756V80H194V724H96Z" transform="translate(359.03, 48.34) scale(0.044000, -0.044000)"/>
    <path d="M96 0H756V80H194V724H96Z" transform="translate(394.69, 48.34) scale(0.044000, -0.044000)"/>
    <path d="M96 0H811V80H194V333H783V413H194V644H807V724H96Z" transform="translate(430.35, 48.34) scale(0.044000, -0.044000)"/>
    <path d="M77 263Q77 194 89.5 143.5Q102 93 132.0 59.0Q162 25 211.5 8.5Q261 -8 335 -8H705Q781 -8 829.0 5.0Q877 18 904.0 43.5Q931 69 940.5 107.0Q950 145 950 194V243H858V198Q858 161 850.0 137.0Q842 113 822.5 98.5Q803 84 770.0 78.0Q737 72 688 72H345Q310 72 279.0 78.5Q248 85 225.0 102.0Q202 119 188.5 149.0Q175 179 175 226V498Q175 545 188.5 575.0Q202 605 225.0 622.0Q248 639 279.0 645.5Q310 652 345 652H685Q719 652 749.0 649.0Q779 646 801.5 633.5Q824 621 837.5 595.0Q851 569 851 523V490H937V552Q937 588 926.5 621.0Q916 654 890.0 678.5Q864 703 820.5 717.5Q777 732 710 732H335Q261 732 211.5 715.5Q162 699 132.0 665.0Q102 631 89.5 580.5Q77 530 77 461Z" transform="translate(470.36, 48.34) scale(0.044000, -0.044000)"/>
    <path d="M383 0H481V644H847V724H17V644H383Z" transform="translate(516.89, 48.34) scale(0.044000, -0.044000)"/>
  </g>

  <!-- Swoosh mark (abstract I) — leaning left -->
  <g transform="rotate(-30, 209.2, 40.5)">
    <path d="M 205.2 11.7 C 221.2 32.4, 221.2 48.5, 203.2 69.2" stroke="#52525e" stroke-width="7.5" fill="none" stroke-linecap="round"/>
    <path d="M 215.2 6.0 C 195.2 26.7, 195.2 42.8, 217.2 63.4" stroke="#4ab8e8" stroke-width="7.5" fill="none" stroke-linecap="round"/>
  </g>
</svg>