<svg xmlns="http://www.w3.org/2000/svg" viewBox="0 0 550.1 83.2" fill="none">
  <!-- Eurostile BQ Extended | 44px -->
  <g fill="#d0d0d6">
    <path d="M86 706V0H167V653L608 0H670C731 89 792 178 855 266C907 339 961 411 1013 485C1049 537 1084 591 1119 645V0H1202V706H1067C1006 620 946 533 884 447C840 385 794 325 751 263C714 210 679 155 644 99L225 706Z" transform="translate(4.00, 47.60) scale(0.044000, -0.044000)"/>
    <path d="M86 706V0H800V73H171V331H776V402H172V636H797V706Z" transform="translate(63.73, 47.60) scale(0.044000, -0.044000)"/>
    <path d="M4 706V630H365V0H453V632H805V706Z" transform="translate(104.23, 47.60) scale(0.044000, -0.044000)"/>
    <path d="M416 706 -6 0H96L186 161H754L849 0H949L534 706ZM475 650 715 228H225Z" transform="translate(142.88, 47.60) scale(0.044000, -0.044000)"/>
    <path d="M84 706V0H171V626C254 548 337 470 419 390C454 356 489 321 524 285C567 242 609 198 653 156C681 128 710 102 738 74L763 49C778 33 793 17 807 0H950V706H862V67L216 706Z" transform="translate(225.96, 47.60) scale(0.044000, -0.044000)"/>
    <path d="M4 706V630H365V0H453V632H805V706Z" transform="translate(274.68, 47.60) scale(0.044000, -0.044000)"/>
    <path d="M86 706V0H800V73H171V331H776V402H172V636H797V706Z" transform="translate(313.34, 47.60) scale(0.044000, -0.044000)"/>
    <path d="M83 706V0H727V77H170V706Z" transform="translate(353.84, 47.60) scale(0.044000, -0.044000)"/>
    <path d="M83 706V0H727V77H170V706Z" transform="translate(388.84, 47.60) scale(0.044000, -0.044000)"/>
    <path d="M86 706V0H800V73H171V331H776V402H172V636H797V706Z" transform="translate(423.84, 47.60) scale(0.044000, -0.044000)"/>
    <path d="M899 479C900 543 899 617 844 663C809 693 765 700 751 702C739 704 727 705 715 706C640 711 565 715 490 715C422 715 355 712 287 710C229 705 173 698 128 655C81 611 72 541 69 524C68 511 67 498 65 485L61 265C63 202 65 130 102 73C107 65 118 49 139 34C184 3 241 -5 292 -7C304 -7 316 -8 328 -8H672C722 -7 772 -6 820 17C856 34 894 66 903 154C906 179 905 204 905 229L816 230C817 192 819 139 791 107C763 76 713 73 676 71H314C241 75 202 84 180 117C160 149 158 190 155 225C154 264 152 304 152 343C152 390 155 436 159 482C162 521 166 577 200 604C232 628 288 632 324 634C381 636 438 638 495 638C557 638 618 635 680 631C764 624 792 608 805 561C812 535 813 505 814 479Z" transform="translate(464.34, 47.60) scale(0.044000, -0.044000)"/>
    <path d="M4 706V630H365V0H453V632H805V706Z" transform="translate(509.41, 47.60) scale(0.044000, -0.044000)"/>
  </g>

  <!-- Swoosh mark (abstract I) — leaning left -->
  <g transform="rotate(-30, 206.0, 40.6)">
    <path d="M 202.0 11.8 C 218.0 32.5, 218.0 48.7, 200.0 69.4" stroke="#52525e" stroke-width="7.5" fill="none" stroke-linecap="round"/>
    <path d="M 212.0 6.0 C 192.0 26.8, 192.0 42.9, 214.0 63.7" stroke="#4ab8e8" stroke-width="7.5" fill="none" stroke-linecap="round"/>
  </g>
</svg>